<?xml version="1.0" encoding="utf-8"?>
<!-- Generator: Adobe Illustrator 21.0.0, SVG Export Plug-In . SVG Version: 6.00 Build 0)  -->
<svg version="1.1" id="Modo_de_aislamiento" xmlns="http://www.w3.org/2000/svg" xmlns:xlink="http://www.w3.org/1999/xlink"
	 x="0px" y="0px" viewBox="0 0 425.2 42.2" style="enable-background:new 0 0 425.2 42.2;" xml:space="preserve">
<style type="text/css">
	.st0{fill:#FFFFFF;}
</style>
<g>
	<path class="st0" d="M132.2,0H89.3c-5,0-9,4-9,9v24.2c0,5,4,9,9,9h42.9c5,0,9-4,9-9V9C141.2,4,137.2,0,132.2,0z M123.2,10.7v20.8
		H98.3V10.7H123.2z"/>
	<polygon class="st0" points="53.3,25.8 52.1,25.8 32.3,0 0,0 7.7,7.8 7.7,42.2 25.8,42.2 25.8,16.3 26.8,16.3 46.7,42.2 71.3,42.2 
		71.3,0 53.3,0 	"/>
	<path class="st0" d="M194.9,42.2h19.3L203,30.6c4.6-0.4,8.2-4.3,8.2-9V9c0-5-4-9-9-9h-51.9v42.2h18V30.7h15.4L194.9,42.2z
		 M168.3,10.7h24.9V20h-24.9V10.7z"/>
	<path class="st0" d="M405.9,42.2h19.3L414,30.6c4.6-0.4,8.2-4.3,8.2-9V9c0-5-4-9-9-9h-51.9v42.2h18V30.7h15.4L405.9,42.2z
		 M379.2,10.7h24.9V20h-24.9V10.7z"/>
	<polygon class="st0" points="294.3,0 294.3,42.2 352.2,42.2 352.2,32.7 312.3,32.7 312.3,25.8 349.8,25.8 349.8,16.4 312.3,16.4 
		312.3,9.5 352.2,9.5 352.2,0 	"/>
	<path class="st0" d="M276.3,0h-62.1l7.7,7.8c-0.1,0.4-0.1,34.4-0.1,34.4h54.5c5,0,9-4,9-9V9C285.3,4,281.3,0,276.3,0z M239.9,10.7
		h27.5v20.8h-27.5V10.7z"/>
</g>
</svg>
